<?xml version="1.0" standalone="no"?>
<!DOCTYPE svg PUBLIC "-//W3C//DTD SVG 1.1//EN" "http://www.w3.org/Graphics/SVG/1.1/DTD/svg11.dtd" >
<svg xmlns="http://www.w3.org/2000/svg" xmlns:xlink="http://www.w3.org/1999/xlink" version="1.1">
<metadata>
Created by FontForge 20161003 at Wed Dec 13 23:37:04 2017
 By www-data
Copyright (c) 2010 by Tele2. All rights reserved.
</metadata>
<defs>
<font id="Tele2RussiaTextBold" horiz-adv-x="1187" >
  <font-face 
    font-family="Tele2RussiaTextBold"
    font-weight="700"
    font-stretch="normal"
    units-per-em="2048"
    panose-1="2 6 8 3 4 4 5 2 1 3"
    ascent="1536"
    descent="-512"
    x-height="1065"
    cap-height="1446"
    bbox="-82 -385 1862 1692"
    underline-thickness="102"
    underline-position="-510"
    unicode-range="U+0020-00F7"
  />
<missing-glyph horiz-adv-x="748" 
d="M68 0v1365h544v-1365h-544zM136 68h408v1229h-408v-1229z" />
    <glyph glyph-name=".notdef" horiz-adv-x="748" 
d="M68 0v1365h544v-1365h-544zM136 68h408v1229h-408v-1229z" />
    <glyph glyph-name=".null" horiz-adv-x="0" 
 />
    <glyph glyph-name="nonmarkingreturn" horiz-adv-x="682" 
 />
    <glyph glyph-name="space" unicode=" " horiz-adv-x="409" 
 />
    <glyph glyph-name="exclam" unicode="!" horiz-adv-x="499" 
d="M123 0v254h254v-254h-254zM133 762v684h234v-684l-48 -397h-139z" />
    <glyph glyph-name="quotedbl" unicode="&#x22;" horiz-adv-x="729" 
d="M123 1257v189h168v-189l-41 -274h-86zM438 1257v189h168v-189l-41 -274h-86z" />
    <glyph glyph-name="numbersign" unicode="#" horiz-adv-x="1130" 
d="M41 422l29 176h161l37 258h-178l29 176h178l55 373h193l-56 -373h246l56 373h192l-55 -373h162l-29 -176h-162l-37 -258h178l-28 -176h-178l-56 -381h-192l55 381h-246l-55 -381h-193l56 381h-162zM424 598h246l37 258h-246z" />
    <glyph glyph-name="dollar" unicode="$" horiz-adv-x="1155" 
d="M82 0v555h221q27 -142 80 -233t121 -123v440q-48 23 -78.5 38t-76 42t-74.5 50.5t-63 58.5t-53.5 71.5t-32.5 84.5t-13 101q0 181 103.5 284.5t287.5 109.5v213h151v-232q84 -26 170 -104l13 90h180v-465h-209q-18 101 -59.5 169.5t-94.5 94.5v-397q68 -31 120 -59.5
t111 -73t97.5 -92t64 -113.5t25.5 -141q0 -177 -113 -286.5t-305 -115.5v-213h-151v228q-126 25 -223 137l-19 -119h-180zM379 1102q0 -57 32.5 -98t92.5 -78v338q-53 -12 -89 -58.5t-36 -103.5zM655 178q65 9 108.5 57.5t43.5 112.5q0 128 -152 217v-387z" />
    <glyph glyph-name="percent" unicode="%" horiz-adv-x="1415" 
d="M82 1200q0 117 80 198t198 81q117 0 197 -81t80 -198t-80 -197.5t-197 -80.5q-118 0 -198 80.5t-80 197.5zM160 0l868 1446h205l-868 -1446h-205zM258 1200q0 -41 29.5 -71.5t70.5 -30.5q40 0 70.5 30.5t30.5 71.5q0 40 -30.5 70t-70.5 30q-41 0 -70.5 -30t-29.5 -70z
M778 244q0 119 80.5 199.5t198.5 80.5q117 0 196.5 -80.5t79.5 -199.5q0 -116 -79.5 -196.5t-196.5 -80.5q-118 0 -198.5 80.5t-80.5 196.5zM954 244q0 -40 30 -70.5t71 -30.5q40 0 70 30.5t30 70.5q0 41 -30 71.5t-70 30.5q-41 0 -71 -30.5t-30 -71.5z" />
    <glyph glyph-name="ampersand" unicode="&#x26;" horiz-adv-x="1353" 
d="M82 424q0 269 283 440q-3 5 -20 29.5t-23 34t-21.5 34t-22 39t-18 38.5t-16.5 42t-9 40.5t-4 43.5q0 131 96 222.5t263 91.5q165 0 265.5 -94.5t100.5 -219.5q0 -114 -62.5 -206t-191.5 -171l181 -262q49 135 55 260h334v-180l-142 -16q-11 -79 -36 -162.5t-52 -130.5
l76 -111q141 -17 154 -18v-168h-305l-84 111q-60 -62 -146 -103t-186 -41q-215 0 -342 127t-127 330zM348 424q0 -105 56.5 -174.5t146.5 -69.5q115 0 205 107q-46 67 -135.5 202t-133.5 199q-139 -91 -139 -264zM489 1157q0 -58 95 -190q114 81 114 190q0 48 -31 78.5
t-75 30.5q-45 0 -74 -30t-29 -79z" />
    <glyph glyph-name="quotesingle" unicode="'" horiz-adv-x="413" 
d="M123 1257v189h168v-189l-41 -274h-86z" />
    <glyph glyph-name="parenleft" unicode="(" horiz-adv-x="647" 
d="M41 725q0 245 86 460t225 376h213q-123 -142 -194.5 -378t-71.5 -458q0 -216 72 -457.5t194 -382.5h-213q-138 160 -224.5 377t-86.5 463z" />
    <glyph glyph-name="parenright" unicode=")" horiz-adv-x="647" 
d="M82 -115q122 141 194 382.5t72 457.5q0 222 -71.5 458t-194.5 378h213q139 -161 225 -376t86 -460q0 -246 -86.5 -463t-224.5 -377h-213z" />
    <glyph glyph-name="asterisk" unicode="*" horiz-adv-x="878" 
d="M123 1151l47 143l106 -34l105 -52l-16 99v131h147v-131l-14 -95l96 48l111 36l51 -139l-127 -43l-97 -20l70 -70l76 -100l-117 -90l-78 100l-47 92l-49 -92l-70 -98l-120 88l75 100l70 72l-98 18z" />
    <glyph glyph-name="plus" unicode="+" horiz-adv-x="1073" 
d="M82 553v197h348v364h205v-364h356v-197h-356v-365h-205v365h-348z" />
    <glyph glyph-name="comma" unicode="," horiz-adv-x="499" 
d="M123 0v254h254v-254l-66 -258h-73v258h-115z" />
    <glyph glyph-name="hyphen" unicode="-" horiz-adv-x="663" 
d="M82 528v246h500v-246h-500z" />
    <glyph glyph-name="period" unicode="." horiz-adv-x="499" 
d="M123 0v254h254v-254h-254z" />
    <glyph glyph-name="slash" unicode="/" horiz-adv-x="1015" 
d="M82 0l614 1446h238l-615 -1446h-237z" />
    <glyph glyph-name="zero" unicode="0" horiz-adv-x="1228" 
d="M82 725q0 163 31.5 298t94 238t166.5 160.5t240 57.5t240 -57.5t167 -160.5t94.5 -238t31.5 -298q0 -131 -19.5 -243.5t-61 -208t-103.5 -163t-151 -105.5t-198 -38t-198 38t-150.5 105.5t-103.5 163t-61 208t-19 243.5zM360 725q0 -125 13 -220.5t41.5 -170.5
t78.5 -114.5t121 -39.5t121.5 39.5t79 114.5t41 170.5t12.5 220.5q0 124 -12.5 219t-41 169.5t-79 113.5t-121.5 39t-121 -39t-78.5 -113.5t-41.5 -169.5t-13 -219z" />
    <glyph glyph-name="one" unicode="1" horiz-adv-x="778" 
d="M41 1186v162l297 98h186v-1249l152 -17v-180h-578v180l152 17v974z" />
    <glyph glyph-name="two" unicode="2" 
d="M123 965q2 57 8 98q29 198 156.5 307t328.5 109q226 0 346.5 -115.5t120.5 -316.5q0 -149 -43.5 -248.5t-150.5 -214.5l-373 -387h410l16 143h164v-340h-971v156l475 487q106 109 150.5 201.5t44.5 202.5q0 106 -47.5 162.5t-141.5 56.5q-179 0 -206 -211l-7 -90h-280z
" />
    <glyph glyph-name="three" unicode="3" 
d="M61 469h279q9 -131 77.5 -210t174.5 -79t172.5 65.5t66.5 162.5q0 103 -70.5 165t-168.5 62h-131v196h90q244 0 244 242q0 93 -57.5 144t-149.5 51q-83 0 -145.5 -64t-73.5 -184h-279q29 223 162.5 341t335.5 118q215 0 348 -109.5t133 -296.5q0 -135 -53.5 -213.5
t-143.5 -105.5q99 -21 166.5 -108t67.5 -238q0 -196 -139 -318.5t-375 -122.5q-239 0 -373 131.5t-158 370.5z" />
    <glyph glyph-name="four" unicode="4" 
d="M41 371v157l643 918h254v-877h188v-198h-188v-174l152 -17v-180h-553v180l147 17v174h-643zM313 569h371v543z" />
    <glyph glyph-name="five" unicode="5" 
d="M82 399h270q19 -101 83.5 -160t160.5 -59q106 0 168.5 78.5t62.5 196.5q0 112 -69 189t-162 77q-176 0 -244 -133l-219 24l47 834h862v-389h-180l-16 194h-424l-23 -372q42 26 104 40.5t120 14.5q221 0 352 -131.5t131 -345.5q0 -225 -135.5 -357.5t-374.5 -132.5
q-225 0 -352 113t-162 319z" />
    <glyph glyph-name="six" unicode="6" 
d="M82 633q0 846 520 846q203 0 317.5 -96.5t167.5 -323.5h-262q-15 97 -73 152t-150 55q-96 0 -165 -115t-81 -313q38 41 113.5 68.5t153.5 27.5q212 0 347.5 -139t135.5 -346q0 -114 -41 -207t-111.5 -152t-160.5 -91t-191 -32q-88 0 -162.5 19.5t-142 67.5t-114 122.5
t-74 190.5t-27.5 266zM365 451q0 -116 67.5 -193.5t169.5 -77.5q96 0 167 77.5t71 193.5t-71 193t-167 77q-104 0 -170.5 -75.5t-66.5 -194.5z" />
    <glyph glyph-name="seven" unicode="7" horiz-adv-x="1064" 
d="M41 1057v389h983v-156l-451 -1093l154 -17v-180h-580v180l148 17l450 1052h-507l-17 -192h-180z" />
    <glyph glyph-name="eight" unicode="8" 
d="M61 410q0 126 81 230.5t192 139.5q-88 19 -153.5 105.5t-65.5 195.5q0 169 138 283.5t339 114.5q132 0 242 -51.5t173.5 -143t63.5 -203.5q0 -110 -64.5 -194.5t-156.5 -106.5q111 -32 193.5 -137.5t82.5 -232.5q0 -192 -148.5 -317.5t-385.5 -125.5q-233 0 -382 125.5
t-149 317.5zM330 434q0 -112 75 -183t187 -71q113 0 190.5 70t77.5 184q0 104 -79 179t-189 75t-186 -74.5t-76 -179.5zM383 1073q0 -82 61.5 -137t147.5 -55q88 0 151.5 55t63.5 137t-63.5 137.5t-151.5 55.5q-86 0 -147.5 -55.5t-61.5 -137.5z" />
    <glyph glyph-name="nine" unicode="9" 
d="M82 997q0 114 41 207t111.5 152t160.5 91t191 32q88 0 162.5 -19.5t142 -67.5t114 -122.5t74 -190.5t27.5 -266q0 -846 -520 -846q-203 0 -318 96.5t-168 323.5h262q15 -97 73.5 -152t150.5 -55q96 0 164.5 115t80.5 313q-38 -42 -113 -69t-153 -27q-212 0 -347.5 139
t-135.5 346zM348 995q0 -116 71 -193t167 -77q104 0 170.5 75.5t66.5 194.5q0 116 -67.5 193.5t-169.5 77.5q-96 0 -167 -77.5t-71 -193.5z" />
    <glyph glyph-name="colon" unicode=":" horiz-adv-x="499" 
d="M123 0v254h254v-254h-254zM123 614v254h254v-254h-254z" />
    <glyph glyph-name="semicolon" unicode=";" horiz-adv-x="499" 
d="M123 0v254h254v-254l-66 -258h-73v258h-115zM123 614v254h254v-254h-254z" />
    <glyph glyph-name="less" unicode="&#x3c;" horiz-adv-x="1073" 
d="M82 596v109l909 417v-219l-557 -254l557 -252v-219z" />
    <glyph glyph-name="equal" unicode="=" horiz-adv-x="1073" 
d="M82 360v197h909v-197h-909zM82 754v196h909v-196h-909z" />
    <glyph glyph-name="greater" unicode="&#x3e;" horiz-adv-x="1073" 
d="M82 178v219l557 252l-557 254v219l909 -417v-109z" />
    <glyph glyph-name="question" unicode="?" horiz-adv-x="1081" 
d="M82 958q4 66 8 103q27 202 142.5 310t314.5 108q113 0 202 -36t142 -95.5t80.5 -130t27.5 -146.5q0 -135 -59 -240.5t-188 -197.5q-56 -41 -79 -99.5t-34 -168.5h-174q-16 101 -16 147q0 145 83 215q122 99 161.5 169t39.5 175q0 88 -48 141.5t-138 53.5
q-77 0 -129.5 -53.5t-65.5 -155.5l-6 -99h-264zM436 0v254h254v-254h-254z" />
    <glyph glyph-name="at" unicode="@" horiz-adv-x="1806" 
d="M164 518q0 197 100 367.5t270.5 271t368.5 100.5q197 0 367.5 -100.5t271 -271t100.5 -367.5q0 -167 -87 -280t-246 -113h-281v61q-80 -77 -203 -77q-156 0 -255 112.5t-99 294.5q0 181 99 293.5t255 112.5q120 0 203 -76v61h270v-131l-100 -10v-498q14 -2 37.5 -5
t36.5 -5q89 -6 138.5 68t49.5 192q0 148 -75.5 278.5t-204.5 208.5t-277 78q-149 0 -276.5 -77.5t-201 -207.5t-73.5 -280q0 -151 73.5 -281.5t200.5 -208t277 -77.5q116 0 219 49h291q-102 -103 -233.5 -162t-276.5 -59q-148 0 -285 59.5t-236 158.5t-158.5 236t-59.5 285z
M678 516q0 -91 44.5 -151t119.5 -60q70 0 108.5 59t38.5 152q0 91 -38.5 149t-108.5 58q-75 0 -119.5 -58.5t-44.5 -148.5z" />
    <glyph glyph-name="A" unicode="A" horiz-adv-x="1540" 
d="M41 0v180l152 17l323 1052l-156 17v180h820v-180l-156 -17l324 -1052l151 -17v-180h-573v180l151 17l-73 241h-469l-72 -241l151 -17v-180h-573zM594 635h350l-170 579h-8z" />
    <glyph glyph-name="B" unicode="B" horiz-adv-x="1232" 
d="M82 0v180l147 17v1052l-147 17v180h532q235 0 361.5 -92t126.5 -260q0 -103 -52.5 -190.5t-129.5 -125.5q109 -34 180 -126.5t71 -217.5q0 -197 -130.5 -315.5t-376.5 -118.5h-582zM504 197h100q138 0 213.5 54t75.5 183q0 121 -77.5 179.5t-211.5 58.5h-100v-475z
M504 856h112q209 0 209 197q0 95 -54.5 145.5t-156.5 50.5h-110v-393z" />
    <glyph glyph-name="C" unicode="C" horiz-adv-x="1327" 
d="M61 723q0 352 160.5 554t444.5 202q110 0 197.5 -46t133.5 -118l25 131h170v-488h-221q-41 139 -119.5 219t-185.5 80q-157 0 -241.5 -131t-84.5 -403q0 -116 19 -211.5t57.5 -169t102 -114t147.5 -40.5q52 0 94 16t72 41t56 68t44 85.5t39 105.5h274
q-108 -537 -579 -537q-287 0 -446 201t-159 555z" />
    <glyph glyph-name="D" unicode="D" horiz-adv-x="1376" 
d="M82 0v180l147 17v1052l-147 17v180h496q168 0 301.5 -42t231.5 -126.5t151 -220t53 -314.5q0 -160 -34.5 -286.5t-94.5 -211.5t-147 -140.5t-188 -80t-220 -24.5h-549zM504 197h96q436 0 436 546q0 229 -120.5 367.5t-340.5 138.5h-71v-1052z" />
    <glyph glyph-name="E" unicode="E" horiz-adv-x="1208" 
d="M82 0v180l147 17v1052l-147 17v180h1024v-389h-176l-17 192h-409v-418h389v-196h-389v-438h430l16 192h176v-389h-1044z" />
    <glyph glyph-name="F" unicode="F" horiz-adv-x="1146" 
d="M82 0v180l147 17v1052l-147 17v180h1024v-389h-176l-17 192h-409v-458h389v-197h-389v-397l147 -17v-180h-569z" />
    <glyph glyph-name="G" unicode="G" horiz-adv-x="1327" 
d="M61 723q0 352 160.5 554t444.5 202q110 0 197.5 -46t133.5 -118l25 131h170v-488h-221q-41 139 -119.5 219t-185.5 80q-157 0 -241.5 -131t-84.5 -403q0 -116 19 -211.5t57.5 -169t102 -114t147.5 -40.5q137 0 220 84.5t83 239.5v20h-295v197h571l-2 -729h-170l-33 154
q-57 -84 -151.5 -135.5t-222.5 -51.5q-287 0 -446 201t-159 555z" />
    <glyph glyph-name="H" unicode="H" horiz-adv-x="1515" 
d="M82 0v180l147 17v1052l-147 17v180h569v-180l-147 -17v-418h508v418l-148 17v180h570v-180l-148 -17v-1052l148 -17v-180h-570v180l148 17v438h-508v-438l147 -17v-180h-569z" />
    <glyph glyph-name="I" unicode="I" horiz-adv-x="724" 
d="M82 0v180l147 17v1052l-147 17v180h561v-180l-139 -17v-1052l139 -17v-180h-561z" />
    <glyph glyph-name="J" unicode="J" horiz-adv-x="942" 
d="M41 39v242q113 -52 227 -52q191 0 191 244v776l-148 17v180h570v-180l-148 -17v-823q0 -227 -112 -334.5t-320 -107.5q-161 0 -260 55z" />
    <glyph glyph-name="K" unicode="K" horiz-adv-x="1503" 
d="M82 0v180l147 17v1052l-147 17v180h569v-180l-147 -17v-473l428 473l-154 17v180h633v-180l-151 -17l-386 -409l437 -643l151 -17v-180h-641v180l154 17l-293 454l-178 -196v-258l147 -17v-180h-569z" />
    <glyph glyph-name="L" unicode="L" horiz-adv-x="1126" 
d="M82 0v180l147 17v1052l-147 17v180h569v-180l-147 -17v-1052h389l16 192h176v-389h-1003z" />
    <glyph glyph-name="M" unicode="M" horiz-adv-x="1806" 
d="M82 0v180l147 17v1052l-147 17v180h534l287 -893l295 893h526v-180l-147 -17v-1052l147 -17v-180h-565v180l148 17v872h-4l-291 -889h-217l-291 889h-4v-872l147 -17v-180h-565z" />
    <glyph glyph-name="N" unicode="N" horiz-adv-x="1425" 
d="M82 0v180l147 17v1052l-147 17v180h381l498 -914h2v717l-148 17v180h569v-180l-147 -17v-1249h-233l-498 913h-2v-716l147 -17v-180h-569z" />
    <glyph glyph-name="O" unicode="O" horiz-adv-x="1327" 
d="M61 723q0 351 161 553.5t442 202.5q283 0 442.5 -202t159.5 -554q0 -353 -159.5 -554.5t-442.5 -201.5q-281 0 -442 202t-161 554zM340 723q0 -87 9.5 -162t33 -145t60 -119.5t93 -79t128.5 -29.5t128.5 29.5t92.5 79.5t59.5 120t33 145t9.5 161q0 260 -82.5 397
t-240.5 137t-241 -137t-83 -397z" />
    <glyph glyph-name="P" unicode="P" horiz-adv-x="1224" 
d="M82 0v180l147 17v1052l-147 17v180h610q100 0 187 -26.5t156 -79t109 -141t40 -202.5q0 -95 -31 -172t-80 -126.5t-115 -82.5t-132 -47t-134 -14h-188v-358l147 -17v-180h-569zM504 762h108q149 0 221 52.5t72 182.5q0 138 -72 195t-221 57h-108v-487z" />
    <glyph glyph-name="Q" unicode="Q" horiz-adv-x="1327" 
d="M61 723q0 351 161 553.5t442 202.5q283 0 442.5 -202t159.5 -554q0 -411 -213 -612q48 -24 135 -70.5t110 -58.5l-59 -158l-575 143q-281 0 -442 202t-161 554zM340 723q0 -87 9.5 -162t33 -145t60 -119.5t93 -79t128.5 -29.5t128.5 29.5t92.5 79.5t59.5 120t33 145
t9.5 161q0 260 -82.5 397t-240.5 137t-241 -137t-83 -397z" />
    <glyph glyph-name="R" unicode="R" horiz-adv-x="1368" 
d="M82 0v180l147 17v1052l-147 17v180h647q102 0 186 -23t152.5 -71.5t106.5 -133t38 -198.5q0 -268 -229 -369q68 -39 110 -134t42 -218v-102l151 -17v-180h-426v178q0 167 -28.5 260.5t-80 127.5t-139.5 34h-108v-403l147 -17v-180h-569zM504 807h145q140 0 212.5 49
t72.5 164q0 128 -71.5 178.5t-213.5 50.5h-145v-442z" />
    <glyph glyph-name="S" unicode="S" horiz-adv-x="1134" 
d="M82 0v555h221q36 -191 120 -279t191 -88q83 0 132 43t49 117q0 52 -15.5 90.5t-63 74.5t-74.5 51t-111 55q-2 2 -3.5 2.5t-3.5 1.5q-41 20 -62 30t-61.5 32t-63.5 37.5t-57.5 41t-55 48t-44.5 54.5t-36.5 64t-21.5 72t-9 83q0 187 110.5 290.5t304.5 103.5
q84 0 161.5 -33.5t135.5 -89.5l13 90h180v-465h-209q-13 77 -42 133.5t-66.5 86t-75 43t-76.5 13.5q-70 0 -114 -43t-44 -112q0 -95 91 -160q44 -31 180 -96q68 -32 118.5 -60.5t109 -73t96 -91t62.5 -112.5t25 -140q0 -182 -118 -292t-318 -110q-220 0 -356 152l-19 -119
h-180z" />
    <glyph glyph-name="T" unicode="T" horiz-adv-x="1253" 
d="M41 1057v389h1171v-389h-180l-16 192h-254v-1052l145 -17v-180h-567v180l147 17v1052h-254l-16 -192h-176z" />
    <glyph glyph-name="U" unicode="U" horiz-adv-x="1515" 
d="M61 1266v180h570v-180l-148 -17v-674q0 -97 21.5 -168.5t58.5 -110.5t79.5 -57t90.5 -18h49q48 0 90.5 18t79.5 57t58.5 110.5t21.5 168.5v674l-147 17v180h569v-180l-147 -17v-690q0 -273 -131 -432.5t-377 -159.5h-82q-235 0 -371.5 162.5t-136.5 429.5v690z" />
    <glyph glyph-name="V" unicode="V" horiz-adv-x="1499" 
d="M41 1266v180h573v-180l-147 -17l268 -917h8l289 917l-147 17v180h573v-180l-147 -17l-420 -1265h-303l-400 1265z" />
    <glyph glyph-name="W" unicode="W" horiz-adv-x="1902" 
d="M41 1266v180h573v-180l-147 -17l147 -966h9l239 983h178l240 -983h8l148 966l-148 17v180h574v-180l-148 -17l-237 -1265h-373l-150 694h-8l-147 -694h-373l-238 1265z" />
    <glyph glyph-name="X" unicode="X" horiz-adv-x="1380" 
d="M41 0v180l152 17l342 526l-342 526l-152 17v180h588v-180l-154 -17l217 -342l213 342l-153 17v180h587v-180l-151 -17l-340 -526l340 -526l151 -17v-180h-587v180l153 17l-215 344l-215 -344l154 -17v-180h-588z" />
    <glyph glyph-name="Y" unicode="Y" horiz-adv-x="1388" 
d="M41 1266v180h569v-180l-151 -17l250 -506l229 506l-152 17v180h562v-180l-152 -17l-350 -735v-317l139 -17v-180h-561v180l147 17v317l-378 735z" />
    <glyph glyph-name="Z" unicode="Z" horiz-adv-x="1204" 
d="M82 0v172l717 1077h-504l-16 -192h-177v389h1000v-172l-717 -1077h545l16 192h176v-389h-1040z" />
    <glyph glyph-name="bracketleft" unicode="[" horiz-adv-x="696" 
d="M164 -205v1856h430v-181l-193 -16v-1462l193 -17v-180h-430z" />
    <glyph glyph-name="backslash" unicode="\" horiz-adv-x="1015" 
d="M82 1446h237l615 -1446h-238z" />
    <glyph glyph-name="bracketright" unicode="]" horiz-adv-x="696" 
d="M102 -25l193 17v1462l-193 16v181h430v-1856h-430v180z" />
    <glyph glyph-name="asciicircum" unicode="^" horiz-adv-x="864" 
d="M41 834l336 612h108l338 -612h-219l-174 317l-170 -317h-219z" />
    <glyph glyph-name="underscore" unicode="_" horiz-adv-x="1024" 
d="M-4 -123h1032v-196h-1032v196z" />
    <glyph glyph-name="grave" unicode="`" horiz-adv-x="507" 
d="M41 1503h274l152 -299h-191z" />
    <glyph glyph-name="a" unicode="a" horiz-adv-x="1093" 
d="M41 317q0 170 119.5 252t380.5 82q47 0 106 -6v60q0 99 -47 139.5t-115 40.5q-52 0 -93 -27.5t-60 -83.5h-262q39 152 145.5 238t269.5 86q189 0 306.5 -96.5t117.5 -272.5v-541l144 -16v-172h-361l-16 98q-34 -53 -114 -92t-161 -39q-157 0 -258.5 97.5t-101.5 252.5z
M307 319q0 -59 35 -96t100 -37q100 0 152.5 68t52.5 172v51q-50 6 -92 6q-67 0 -117.5 -15t-77.5 -39.5t-40 -52t-13 -57.5z" />
    <glyph glyph-name="b" unicode="b" horiz-adv-x="1200" 
d="M61 0v172l144 16v1069l-144 17v172h406v-471q47 63 102.5 93t141.5 30q127 0 230.5 -77t160.5 -206.5t57 -282.5t-57 -282.5t-160.5 -206t-230.5 -76.5q-154 0 -248 148l-17 -115h-385zM455 535q0 -151 60 -253t159 -102q98 0 158.5 102.5t60.5 252.5q0 152 -60.5 252
t-158.5 100q-99 0 -159 -100.5t-60 -251.5z" />
    <glyph glyph-name="c" unicode="c" horiz-adv-x="1024" 
d="M41 530q0 251 123.5 409.5t308.5 158.5q73 0 141.5 -34t100.5 -89l20 90h168v-340h-192q-38 83 -83.5 121.5t-113.5 38.5q-107 0 -157 -95.5t-50 -259.5q0 -161 50 -255.5t157 -94.5q74 0 114 38.5t72 121.5h263q-22 -77 -58 -142t-89.5 -118t-131 -83t-170.5 -30
q-218 0 -345.5 156t-127.5 407z" />
    <glyph glyph-name="d" unicode="d" horiz-adv-x="1200" 
d="M61 532q0 153 57.5 282.5t161 206.5t230.5 77q86 0 141.5 -30t102.5 -93v266l-144 16v173h406v-1242l143 -16v-172h-385l-16 115q-94 -148 -248 -148q-127 0 -230.5 76.5t-161 206t-57.5 282.5zM328 535q0 -150 60.5 -252.5t158.5 -102.5q99 0 159 102t60 253t-60 251.5
t-159 100.5q-98 0 -158.5 -100t-60.5 -252z" />
    <glyph glyph-name="e" unicode="e" horiz-adv-x="1069" 
d="M41 539q0 250 136.5 404.5t357.5 154.5t357 -154t136 -405q0 -45 -2 -80h-715q14 -130 73.5 -208.5t150.5 -78.5q133 0 194 131h262q-55 -156 -174 -246t-282 -90q-145 0 -258 75.5t-174.5 205.5t-61.5 291zM315 635h439q-21 120 -76 189t-143 69q-87 0 -144.5 -71
t-75.5 -187z" />
    <glyph glyph-name="f" unicode="f" horiz-adv-x="720" 
d="M61 0v172l144 16v697h-144v180h144v135q0 106 47 181.5t123 111t172 35.5q120 0 215 -53v-218q-78 54 -154 54q-141 0 -141 -148v-98h225v-180h-225v-697l143 -16v-172h-549z" />
    <glyph glyph-name="g" unicode="g" horiz-adv-x="1179" 
d="M41 565q0 232 126.5 382.5t321.5 150.5q154 0 248 -148l17 115h385v-172l-144 -16v-852q0 -200 -120 -305t-334 -105q-200 0 -325.5 92t-145.5 260h274q23 -67 69 -101t128 -34q91 0 141.5 62t50.5 172v98q-48 -65 -104 -98t-140 -33q-195 0 -321.5 150t-126.5 382z
M307 563q0 -148 59.5 -233.5t159.5 -85.5q101 0 160 85.5t59 233.5q0 147 -59 234.5t-160 87.5q-100 0 -159.5 -88t-59.5 -234z" />
    <glyph glyph-name="h" unicode="h" horiz-adv-x="1273" 
d="M61 0v172l144 16v1069l-144 17v172h402v-496q46 62 131.5 105t173.5 43q65 0 121.5 -19.5t102 -58t72 -102.5t26.5 -146v-584l143 -16v-172h-528v172l122 16v490q0 120 -39 167.5t-122 47.5q-61 0 -113.5 -37t-85.5 -106v-562l123 -16v-172h-529z" />
    <glyph glyph-name="i" unicode="i" horiz-adv-x="671" 
d="M61 0v172l144 16v689l-144 16v172h406v-877l143 -16v-172h-549zM172 1204v242h266v-242h-266z" />
    <glyph glyph-name="j" unicode="j" horiz-adv-x="536" 
d="M-82 -141q65 -25 133 -25q80 0 111 56.5t31 215.5v771l-144 16v172h406v-1081q0 -108 -30 -183.5t-84 -114.5t-115 -55t-138 -16q-91 0 -170 27v217zM160 1204v242h266v-242h-266z" />
    <glyph glyph-name="k" unicode="k" horiz-adv-x="1261" 
d="M61 0v172l144 16v1069l-133 17v172h395v-858l289 289l-101 16v172h531v-172l-152 -16l-299 -299l334 -390l152 -16v-172h-562v172l111 16l-197 240l-106 -106v-134l100 -16v-172h-506z" />
    <glyph glyph-name="l" unicode="l" horiz-adv-x="671" 
d="M61 0v172l144 16v1069l-133 17v172h395v-1258l143 -16v-172h-549z" />
    <glyph glyph-name="m" unicode="m" horiz-adv-x="1773" 
d="M61 0v172l144 16v689l-144 16v172h385l17 -115q93 148 264 148q95 0 169 -45.5t108 -134.5q98 180 284 180q130 0 215.5 -82.5t85.5 -243.5v-584l123 -16v-172h-487v172l102 16v490q0 118 -36.5 166.5t-104.5 48.5q-98 0 -158 -143v-562l102 -16v-172h-466v172l102 16
v490q0 118 -36.5 166.5t-104.5 48.5q-98 0 -158 -143v-562l102 -16v-172h-508z" />
    <glyph glyph-name="n" unicode="n" horiz-adv-x="1253" 
d="M61 0v172l144 16v689l-144 16v172h385l17 -115q46 62 131.5 105t173.5 43q65 0 121.5 -19.5t102 -58t72 -102.5t26.5 -146v-584l122 -16v-172h-507v172l122 16v490q0 120 -39 167.5t-122 47.5q-61 0 -113.5 -37t-85.5 -106v-562l123 -16v-172h-529z" />
    <glyph glyph-name="o" unicode="o" horiz-adv-x="1028" 
d="M41 530q0 254 127.5 411t345.5 157t345.5 -157t127.5 -411q0 -251 -127.5 -407t-345.5 -156t-345.5 156t-127.5 407zM307 530q0 -161 50 -255.5t157 -94.5q108 0 157.5 94t49.5 256q0 164 -49.5 259.5t-157.5 95.5q-72 0 -119.5 -48t-67.5 -125t-20 -182z" />
    <glyph glyph-name="p" unicode="p" horiz-adv-x="1200" 
d="M61 -193l144 17v1053l-144 16v172h385l17 -115q94 148 248 148q127 0 230.5 -77t160.5 -206.5t57 -282.5t-57 -282.5t-160.5 -206t-230.5 -76.5q-86 0 -141.5 30t-102.5 93v-266l143 -17v-172h-549v172zM455 530q0 -151 60 -251.5t159 -100.5q98 0 158.5 100t60.5 252
q0 150 -60.5 252.5t-158.5 102.5q-99 0 -159 -102t-60 -253z" />
    <glyph glyph-name="q" unicode="q" horiz-adv-x="1200" 
d="M41 532q0 153 57 282.5t160.5 206.5t230.5 77q154 0 248 -148l17 115h385v-172l-144 -16v-1053l144 -17v-172h-549v172l143 17v266q-47 -63 -102.5 -93t-141.5 -30q-127 0 -230.5 76.5t-160.5 206t-57 282.5zM307 530q0 -152 60.5 -252t158.5 -100q99 0 159 100.5
t60 251.5t-60 253t-159 102q-98 0 -158.5 -102.5t-60.5 -252.5z" />
    <glyph glyph-name="r" unicode="r" horiz-adv-x="884" 
d="M61 0v172l144 16v689l-144 16v172h385l17 -115q36 68 110.5 108t145.5 40q77 0 145 -21v-241q-59 36 -141 36q-55 0 -103 -16.5t-91 -61t-62 -114.5v-492l143 -16v-172h-549z" />
    <glyph glyph-name="s" unicode="s" horiz-adv-x="888" 
d="M61 0v389h172q22 -66 53 -112.5t64 -70.5t62.5 -34t60.5 -10q52 0 82.5 24t30.5 70q0 53 -52.5 94.5t-146.5 83.5q-149 67 -227 153t-78 206q0 135 81.5 216t225.5 81q149 0 248 -99l10 74h156v-328h-164q-65 172 -184 172q-45 0 -78 -28t-33 -70q0 -51 37.5 -92
t122.5 -82q52 -25 83 -42t77 -45t74 -54t56 -59.5t41 -73.5t13 -84q0 -150 -85.5 -227t-244.5 -77q-83 0 -150.5 33.5t-105.5 89.5l-20 -98h-181z" />
    <glyph glyph-name="t" unicode="t" horiz-adv-x="782" 
d="M41 885v180h143v188l262 62v-250h246v-180h-246v-488q0 -118 32 -165.5t110 -47.5q64 0 153 45v-221q-83 -41 -215 -41q-96 0 -172 35.5t-123 111t-47 181.5v590h-143z" />
    <glyph glyph-name="u" unicode="u" horiz-adv-x="1253" 
d="M61 893v172h385v-678q0 -120 39.5 -167.5t122.5 -47.5q61 0 113.5 37t85.5 106v562l-123 16v172h385v-877l143 -16v-172h-385l-16 115q-46 -62 -131.5 -105t-173.5 -43q-65 0 -121.5 19.5t-102 58t-72 102.5t-26.5 146v584z" />
    <glyph glyph-name="v" unicode="v" horiz-adv-x="1290" 
d="M41 893v172h537v-172l-127 -16l190 -607h8l191 607l-127 16v172h536v-172l-147 -16l-293 -893h-320l-301 893z" />
    <glyph glyph-name="w" unicode="w" horiz-adv-x="1683" 
d="M41 893v172h541v-172l-148 -16l107 -574h8l180 590h225l183 -590h8l104 574l-155 16v172h548v-172l-147 -16l-178 -893h-320l-151 559h-8l-150 -559h-319l-181 893z" />
    <glyph glyph-name="x" unicode="x" horiz-adv-x="1196" 
d="M41 0v172l131 16l264 340l-258 349l-131 16v172h508v-172l-100 -16l135 -203l147 203l-100 16v172h508v-172l-131 -16l-256 -326l266 -363l131 -16v-172h-508v172l101 16l-144 215l-155 -215l100 -16v-172h-508z" />
    <glyph glyph-name="y" unicode="y" horiz-adv-x="1232" 
d="M41 893v172h532v-172l-127 -16l185 -529l168 529l-127 16v172h520v-172l-152 -16l-299 -893q-69 -201 -159 -285t-220 -84q-42 0 -99 10t-91 27v213q83 -41 154 -41t114.5 48.5t71.5 145.5l-319 859z" />
    <glyph glyph-name="z" unicode="z" horiz-adv-x="962" 
d="M61 0v160l527 717h-326l-16 -144h-160v332h799v-160l-527 -717h367l16 144h160v-332h-840z" />
    <glyph glyph-name="braceleft" unicode="{" horiz-adv-x="845" 
d="M41 598v188l274 33v832h428v-201l-192 -16v-1442l192 -17v-180h-428v770z" />
    <glyph glyph-name="bar" unicode="|" horiz-adv-x="561" 
d="M205 -246v1938h151v-1938h-151z" />
    <glyph glyph-name="braceright" unicode="}" horiz-adv-x="845" 
d="M102 -25l193 17v1442l-193 16v201h428v-832l275 -33v-188l-275 -33v-770h-428v180z" />
    <glyph glyph-name="uni00A0" unicode="&#xa0;" horiz-adv-x="409" 
 />
    <glyph glyph-name="exclamdown" unicode="&#xa1;" horiz-adv-x="499" 
d="M123 844v254h254v-254h-254zM133 336l47 397h139l48 -397v-684h-234v684z" />
    <glyph glyph-name="brokenbar" unicode="&#xa6;" horiz-adv-x="561" 
d="M205 -246v905h151v-905h-151zM205 885v807h151v-807h-151z" />
    <glyph glyph-name="section" unicode="&#xa7;" horiz-adv-x="937" 
d="M82 530q0 69 27.5 132.5t70.5 99.5q-98 91 -98 215q0 133 87.5 211t227.5 78q145 0 232 -80l8 67h145v-350h-151q-35 88 -93 126t-122 38q-47 0 -77 -19.5t-30 -52.5q0 -20 11.5 -37.5t25 -29t44.5 -26t48.5 -21t57.5 -21.5q49 -17 89.5 -35.5t85 -47.5t74.5 -62
t50 -80.5t20 -102.5q0 -78 -25 -142t-71 -99q44 -36 70 -93t26 -124q0 -295 -328 -295q-72 0 -131 24t-94 64l-12 -72h-160v404h150q22 -70 50 -116.5t59.5 -68t58.5 -29.5t59 -8q56 0 88.5 23t32.5 70q0 76 -182 139q-137 49 -190 83q-133 85 -134 238zM309 549
q0 -21 11.5 -38.5t37 -32.5t48 -25t63.5 -25q119 0 119 84q0 21 -18.5 39t-39 28t-63.5 28q-8 3 -12 5q-14 2 -39 2q-107 0 -107 -65z" />
    <glyph glyph-name="dieresis" unicode="&#xa8;" horiz-adv-x="700" 
d="M41 1221v225h250v-225h-250zM410 1221v225h249v-225h-249z" />
    <glyph glyph-name="copyright" unicode="&#xa9;" horiz-adv-x="1671" 
d="M82 723q0 151 60.5 290.5t161.5 241.5t240.5 163t291.5 61q151 0 290 -61t240.5 -163t162 -241.5t60.5 -290.5t-60.5 -290.5t-162 -241.5t-240.5 -163t-290 -61q-152 0 -291.5 61t-240.5 163t-161.5 241.5t-60.5 290.5zM242 723q0 -157 80.5 -295.5t218 -221.5t295.5 -83
q156 0 293.5 83t219 221.5t81.5 295.5q0 118 -48.5 229t-128.5 192t-190 130t-227 49q-158 0 -295.5 -82.5t-218 -221t-80.5 -296.5zM381 723q0 214 124.5 345.5t319.5 131.5q63 0 125.5 -19.5t104.5 -50.5l12 54h115v-316h-150q-64 138 -207 138q-93 0 -153 -78t-60 -205
q0 -125 60 -203t153 -78q81 0 129 33t82 109h197q-46 -149 -148.5 -241.5t-259.5 -92.5q-196 0 -320 131t-124 342z" />
    <glyph glyph-name="ordfeminine" unicode="&#xaa;" horiz-adv-x="794" 
d="M82 993q0 224 313 224q22 0 56 -3v11q0 56 -26 79t-65 23q-66 0 -86 -67h-176q25 99 92.5 154.5t169.5 55.5q119 0 193 -59.5t74 -171.5v-315l86 -13v-116h-234l-10 45q-27 -27 -72 -46.5t-88 -19.5q-99 0 -163 61.5t-64 157.5zM260 1001q0 -35 19 -56t55 -21
q57 0 87 38.5t30 98.5v22q-20 2 -48 2q-143 0 -143 -84z" />
    <glyph glyph-name="guillemotleft" unicode="&#xab;" horiz-adv-x="1210" 
d="M82 508v110l498 261v-201l-230 -117l230 -108v-203zM631 508v110l497 261v-201l-229 -117l229 -108v-203z" />
    <glyph glyph-name="registered" unicode="&#xae;" horiz-adv-x="1007" 
d="M82 1057q0 174 124 298t298 124t298 -124t124 -298q0 -175 -123.5 -299.5t-298.5 -124.5t-298.5 124.5t-123.5 299.5zM203 1057q0 -128 87.5 -216.5t213.5 -88.5t213.5 88.5t87.5 216.5q0 126 -87.5 213.5t-213.5 87.5t-213.5 -87.5t-87.5 -213.5zM309 836v82l45 10v260
l-45 10v88h193q85 0 138.5 -35t53.5 -110q0 -96 -96 -135l51 -74l62 -14v-82h-123l-111 155h-10v-65l43 -8v-82h-201zM467 1094h27q86 0 86 45q0 26 -22 36.5t-66 10.5h-25v-92z" />
    <glyph glyph-name="degree" unicode="&#xb0;" horiz-adv-x="800" 
d="M123 1266q0 117 80 197.5t198 80.5q117 0 197 -80.5t80 -197.5t-80 -198t-197 -81q-118 0 -198 81t-80 198zM283 1266q0 -50 33.5 -84.5t82.5 -34.5q48 0 82.5 35t34.5 84q0 47 -35 81.5t-82 34.5q-49 0 -82.5 -34t-33.5 -82z" />
    <glyph glyph-name="plusminus" unicode="&#xb1;" horiz-adv-x="1073" 
d="M82 0v197h909v-197h-909zM82 553v197h348v364h205v-364h356v-197h-356v-283h-205v283h-348z" />
    <glyph glyph-name="twosuperior" unicode="&#xb2;" horiz-adv-x="657" 
d="M78 1167q6 56 8 70q15 102 82.5 167.5t163.5 65.5q62 0 110 -20.5t76.5 -54.5t42.5 -74.5t14 -83.5q0 -110 -126 -262l-125 -146h110l10 70h125v-213h-481v94l223 262q62 75 87.5 115.5t25.5 79.5q0 36 -26 61t-66 25q-36 0 -60.5 -27t-29.5 -69l-6 -60h-158z" />
    <glyph glyph-name="threesuperior" unicode="&#xb3;" horiz-adv-x="679" 
d="M82 985h158q21 -158 116 -158q43 0 72 26t29 67q0 40 -29 65t-66 25h-53v143h47q34 0 55 25t21 61q0 37 -22 60.5t-62 23.5q-36 0 -59.5 -30t-36.5 -97h-160q26 139 89 206.5t167 67.5q111 0 175.5 -67.5t64.5 -163.5q0 -90 -60 -154q80 -65 80 -165q0 -97 -68.5 -167.5
t-183.5 -70.5q-237 0 -274 303z" />
    <glyph glyph-name="acute" unicode="&#xb4;" horiz-adv-x="507" 
d="M41 1204l152 299h274l-236 -299h-190z" />
    <glyph glyph-name="paragraph" unicode="&#xb6;" horiz-adv-x="1220" 
d="M82 1010q0 92 26.5 166t71.5 124t108 83t134 48t151 15h607v-180l-144 -17v-1052l144 -17v-180h-303v1251h-144v-1251h-303v180l143 17v383q-68 0 -133.5 12.5t-131.5 44t-115.5 79t-80 123.5t-30.5 171z" />
    <glyph glyph-name="periodcentered" unicode="&#xb7;" horiz-adv-x="499" 
d="M123 487v254h254v-254h-254z" />
    <glyph glyph-name="onesuperior" unicode="&#xb9;" horiz-adv-x="649" 
d="M164 1272v119l162 55h88v-629q13 -1 39 -5t30 -5v-131h-299v129l70 10v453q-58 4 -90 4z" />
    <glyph glyph-name="ordmasculine" unicode="&#xba;" horiz-adv-x="751" 
d="M82 1120q0 159 78.5 254.5t216.5 95.5q136 0 214.5 -95.5t78.5 -254.5q0 -155 -78.5 -250.5t-214.5 -95.5q-137 0 -216 95.5t-79 250.5zM260 1120q0 -200 117 -200t117 200q0 207 -117 207t-117 -207z" />
    <glyph glyph-name="guillemotright" unicode="&#xbb;" horiz-adv-x="1210" 
d="M82 250v203l229 108l-229 117v201l498 -261v-110zM631 250v203l229 108l-229 117v201l497 -261v-110z" />
    <glyph glyph-name="onequarter" unicode="&#xbc;" horiz-adv-x="1275" 
d="M123 1272v119l162 55h88v-629q13 -1 39 -5t30 -5v-131h-299v129l70 10v453q-58 4 -90 4zM197 0l780 1446h176l-778 -1446h-178zM666 178v96l311 490h145v-449h92v-137h-92v-45l74 -10v-123h-299v123l72 12v43h-303zM848 315h121v187q-19 -31 -58.5 -90.5t-62.5 -96.5z
" />
    <glyph glyph-name="onehalf" unicode="&#xbd;" horiz-adv-x="1275" 
d="M123 1274v119l162 55h88v-629q13 -1 39 -5t30 -5v-131h-299v129l70 10v453q-58 4 -90 4zM137 0l781 1446h176l-781 -1446h-176zM696 481q7 56 9 70q15 102 82 167.5t163 65.5q62 0 110.5 -20.5t76.5 -54.5t42.5 -74.5t14.5 -83.5q0 -109 -127 -262l-125 -146h111l10 70
h125v-213h-481v94l223 262q62 74 87 115t25 80q0 36 -26 61t-66 25q-36 0 -60.5 -27t-29.5 -69l-6 -60h-158z" />
    <glyph glyph-name="threequarters" unicode="&#xbe;" horiz-adv-x="1280" 
d="M82 985h158q21 -158 116 -158q43 0 72 26t29 67q0 40 -29 65t-66 25h-53v143h47q34 0 55 25t21 61q0 37 -22 60.5t-62 23.5q-36 0 -59.5 -30t-36.5 -97h-160q26 139 89 206.5t167 67.5q111 0 175.5 -67.5t64.5 -163.5q0 -90 -60 -154q80 -65 80 -165q0 -97 -68.5 -167.5
t-183.5 -70.5q-237 0 -274 303zM242 0l780 1446h176l-778 -1446h-178zM670 180v94l311 490h145v-449h93v-135h-93v-47l74 -10v-123h-299v123l72 12v45h-303zM852 315h121v187z" />
    <glyph glyph-name="questiondown" unicode="&#xbf;" horiz-adv-x="1081" 
d="M82 27q0 135 59.5 240.5t188.5 197.5q56 41 78.5 99.5t33.5 168.5h174q17 -107 17 -147q0 -144 -84 -215q-122 -99 -161.5 -169t-39.5 -175q0 -88 48.5 -141.5t138.5 -53.5q77 0 129 53.5t65 155.5l6 98h264q-4 -65 -8 -102q-27 -202 -142 -310t-314 -108q-113 0 -202 36
t-142.5 95.5t-81 130t-27.5 146.5zM391 844v254h254v-254h-254z" />
    <glyph glyph-name="multiply" unicode="&#xd7;" horiz-adv-x="1093" 
d="M106 352l295 295l-295 295l146 145l295 -294l301 301l139 -140l-301 -301l295 -295l-145 -145l-295 295l-295 -295z" />
    <glyph glyph-name="divide" unicode="&#xf7;" horiz-adv-x="1073" 
d="M82 553v197h909v-197h-909zM410 160v254h254v-254h-254zM410 889v254h254v-254h-254z" />
    </font>
</defs>
</svg>
